<svg xmlns="http://www.w3.org/2000/svg" viewBox="0 0 720 524" font-family="'Be Vietnam Pro', Arial, sans-serif">

  <rect width="720" height="524" fill="#f0f2f5" rx="8"/>

  <!-- ── Thanh trình duyệt ── -->
  <rect x="0" y="0" width="720" height="32" fill="#dee1e6" rx="8"/>
  <rect x="0" y="18" width="720" height="14" fill="#dee1e6"/>
  <circle cx="20" cy="16" r="5" fill="#ff5f57"/>
  <circle cx="36" cy="16" r="5" fill="#febc2e"/>
  <circle cx="52" cy="16" r="5" fill="#28c840"/>
  <rect x="100" y="6" width="400" height="20" fill="white" rx="10"/>
  <text x="300" y="20" font-size="10" fill="#666" text-anchor="middle">sites.google.com/view/nguyenvana-portfolio</text>
  <rect x="510" y="8" width="56" height="16" fill="#1a73e8" rx="3"/>
  <text x="538" y="19" font-size="9" fill="white" text-anchor="middle">Theo dõi</text>

  <!-- ── Navigation bar ── -->
  <rect x="0" y="32" width="720" height="44" fill="white"/>
  <rect x="0" y="75" width="720" height="1" fill="#e0e0e0"/>
  <text x="30" y="59" font-size="14" fill="#1a73e8" font-weight="700">NVA</text>
  <text x="30" y="70" font-size="8" fill="#888">Nguyễn Văn A</text>
  <text x="350" y="60" font-size="12" fill="#1a73e8" text-anchor="middle" font-weight="600">Trang chủ</text>
  <text x="430" y="60" font-size="12" fill="#555" text-anchor="middle">Về tôi</text>
  <text x="510" y="60" font-size="12" fill="#555" text-anchor="middle">Tác phẩm ▾</text>
  <text x="596" y="60" font-size="12" fill="#555" text-anchor="middle">Liên hệ</text>

  <!-- ── Hero section ── -->
  <defs>
    <linearGradient id="heroGrad" x1="0%" y1="0%" x2="100%" y2="100%">
      <stop offset="0%" style="stop-color:#1a73e8"/>
      <stop offset="100%" style="stop-color:#0d47a1"/>
    </linearGradient>
  </defs>
  <rect x="0" y="76" width="720" height="150" fill="url(#heroGrad)"/>

  <!-- Avatar placeholder -->
  <circle cx="120" cy="151" r="52" fill="rgba(255,255,255,0.15)"/>
  <circle cx="120" cy="151" r="44" fill="rgba(255,255,255,0.25)"/>
  <circle cx="120" cy="140" r="18" fill="rgba(255,255,255,0.5)"/>
  <ellipse cx="120" cy="168" rx="28" ry="16" fill="rgba(255,255,255,0.35)"/>

  <!-- Hero text -->
  <text x="200" y="127" font-size="22" fill="white" font-weight="700">Nguyễn Văn A</text>
  <text x="200" y="148" font-size="13" fill="rgba(255,255,255,0.9)">Phóng viên mảng văn hóa – xã hội</text>
  <text x="200" y="164" font-size="12" fill="rgba(255,255,255,0.75)">Báo Thanh Niên · Huế, Việt Nam</text>

  <!-- Badges -->
  <rect x="200" y="175" width="92" height="22" fill="rgba(255,255,255,0.2)" rx="11"/>
  <text x="246" y="190" font-size="10" fill="white" text-anchor="middle">5 năm kinh nghiệm</text>
  <rect x="300" y="175" width="76" height="22" fill="rgba(255,255,255,0.2)" rx="11"/>
  <text x="338" y="190" font-size="10" fill="white" text-anchor="middle">120+ bài viết</text>
  <rect x="384" y="175" width="80" height="22" fill="rgba(255,255,255,0.2)" rx="11"/>
  <text x="424" y="190" font-size="10" fill="white" text-anchor="middle">3 giải báo chí</text>

  <!-- ── Section: Tác phẩm nổi bật ── -->
  <rect x="0" y="226" width="720" height="178" fill="white"/>
  <text x="360" y="248" font-size="13" fill="#333" text-anchor="middle" font-weight="700">Tác phẩm nổi bật</text>

  <!-- Card 1 -->
  <rect x="30"  y="258" width="200" height="134" fill="white" stroke="#e0e0e0" rx="8"/>
  <rect x="30"  y="258" width="200" height="70"  fill="#e3f2fd" rx="8"/>
  <rect x="30"  y="314" width="200" height="14"  fill="#e3f2fd"/>
  <text x="130" y="299" font-size="20" text-anchor="middle">📰</text>
  <text x="42"  y="346" font-size="10" fill="#1a73e8">Điều tra</text>
  <text x="42"  y="360" font-size="11" fill="#333" font-weight="600">Ô nhiễm sông Hương:</text>
  <text x="42"  y="374" font-size="11" fill="#333">Ai chịu trách nhiệm?</text>
  <text x="42"  y="386" font-size="9"  fill="#888">Thanh Niên · 15/03/2025</text>

  <!-- Card 2 -->
  <rect x="260" y="258" width="200" height="134" fill="white" stroke="#e0e0e0" rx="8"/>
  <rect x="260" y="258" width="200" height="70"  fill="#fce4ec" rx="8"/>
  <rect x="260" y="314" width="200" height="14"  fill="#fce4ec"/>
  <text x="360" y="299" font-size="20" text-anchor="middle">🎭</text>
  <text x="272" y="346" font-size="10" fill="#e91e63">Văn hóa</text>
  <text x="272" y="360" font-size="11" fill="#333" font-weight="600">Nghệ thuật Huế thời</text>
  <text x="272" y="374" font-size="11" fill="#333">chuyển đổi số</text>
  <text x="272" y="386" font-size="9"  fill="#888">VnExpress · 02/02/2025</text>

  <!-- Card 3 -->
  <rect x="490" y="258" width="200" height="134" fill="white" stroke="#e0e0e0" rx="8"/>
  <rect x="490" y="258" width="200" height="70"  fill="#e8f5e9" rx="8"/>
  <rect x="490" y="314" width="200" height="14"  fill="#e8f5e9"/>
  <text x="590" y="299" font-size="20" text-anchor="middle">📊</text>
  <text x="502" y="346" font-size="10" fill="#2e7d32">Dữ liệu</text>
  <text x="502" y="360" font-size="11" fill="#333" font-weight="600">GDP tỉnh miền Trung</text>
  <text x="502" y="374" font-size="11" fill="#333">2020 – 2025</text>
  <text x="502" y="386" font-size="9"  fill="#888">Tuổi Trẻ · 10/01/2025</text>

  <!-- ── Section: Video + Liên hệ ── -->
  <rect x="0" y="404" width="720" height="100" fill="#f8f9fa"/>
  <text x="360" y="420" font-size="11" fill="#666" text-anchor="middle" font-weight="600">PHÓNG SỰ VIDEO</text>

  <!-- Video box: x=30 → x=355, width=325 -->
  <rect x="30" y="428" width="325" height="62" fill="#1a1a2e" rx="6"/>
  <!-- Play button ở bên trái, trong ô, khoảng x=60 -->
  <circle cx="68" cy="459" r="18" fill="rgba(255,255,255,0.15)"/>
  <polygon points="76,459 62,451 62,467" fill="white"/>
  <!-- Text video cách play button 20px, bắt đầu x=96, tối đa x=345 -->
  <text x="96" y="452" font-size="11" fill="white">Phóng sự: Làng nghề</text>
  <text x="96" y="467" font-size="11" fill="white">truyền thống Huế</text>
  <text x="96" y="481" font-size="9"  fill="#aaa">5:42 · VTV Huế · 2024</text>

  <!-- Contact box: x=365 → x=690, width=325 -->
  <rect x="365" y="428" width="325" height="62" fill="white" stroke="#e0e0e0" rx="6"/>
  <text x="380" y="446" font-size="11" fill="#333" font-weight="600">Liên hệ hợp tác</text>
  <text x="380" y="461" font-size="10" fill="#1a73e8">✉  nguyenvana@email.com</text>
  <text x="380" y="475" font-size="10" fill="#1a73e8">in  linkedin.com/in/nguyenvana</text>
  <text x="380" y="489" font-size="10" fill="#1a73e8">tw  @nguyenvana_bao</text>

  <!-- ── Caption ── -->
  <rect x="0" y="504" width="720" height="20" fill="#e8eaed"/>
  <text x="360" y="517" font-size="9" fill="#666" text-anchor="middle">Ví dụ minh họa — Trang portfolio nhà báo hoàn chỉnh trên Google Sites</text>

</svg>
