<svg xmlns="http://www.w3.org/2000/svg" viewBox="0 0 720 400" font-family="Arial, sans-serif">
  <!-- Background -->
  <rect width="720" height="400" fill="#f0f0f1"/>

  <!-- Sidebar -->
  <rect x="0" y="0" width="160" height="400" fill="#1d2327"/>

  <!-- WordPress Logo area -->
  <rect x="0" y="0" width="160" height="46" fill="#1d2327"/>
  <circle cx="22" cy="23" r="10" fill="none" stroke="#a7aaad" stroke-width="1.5"/>
  <text x="38" y="28" font-size="13" fill="#a7aaad" font-weight="bold">WordPress</text>

  <!-- Sidebar items (muted) -->
  <rect x="12" y="60" width="10" height="10" rx="2" fill="#a7aaad"/>
  <text x="28" y="69" font-size="11" fill="#a7aaad">Dashboard</text>
  <rect x="12" y="86" width="10" height="10" rx="2" fill="#a7aaad"/>
  <text x="28" y="95" font-size="11" fill="#a7aaad">Posts</text>
  <rect x="12" y="112" width="10" height="10" rx="2" fill="#a7aaad"/>
  <text x="28" y="121" font-size="11" fill="#a7aaad">Media</text>
  <rect x="12" y="138" width="10" height="10" rx="2" fill="#a7aaad"/>
  <text x="28" y="147" font-size="11" fill="#a7aaad">Pages</text>
  <rect x="12" y="164" width="10" height="10" rx="2" fill="#a7aaad"/>
  <text x="28" y="173" font-size="11" fill="#a7aaad">Comments</text>
  <rect x="12" y="190" width="10" height="10" rx="2" fill="#a7aaad"/>
  <text x="28" y="199" font-size="11" fill="#a7aaad">Appearance</text>

  <!-- Plugins - Active -->
  <rect x="0" y="212" width="160" height="30" fill="#2c3338"/>
  <rect x="0" y="212" width="3" height="30" fill="#2271b1"/>
  <rect x="12" y="222" width="10" height="10" rx="2" fill="#72aee6"/>
  <text x="28" y="231" font-size="11" fill="#72aee6" font-weight="bold">Plugins</text>

  <rect x="12" y="252" width="10" height="10" rx="2" fill="#a7aaad"/>
  <text x="28" y="261" font-size="11" fill="#a7aaad">Users</text>
  <rect x="12" y="278" width="10" height="10" rx="2" fill="#a7aaad"/>
  <text x="28" y="287" font-size="11" fill="#a7aaad">Settings</text>

  <!-- Top admin bar -->
  <rect x="160" y="0" width="560" height="32" fill="#1d2327"/>
  <text x="175" y="21" font-size="12" fill="#a7aaad">My Site</text>
  <text x="560" y="21" font-size="11" fill="#a7aaad">Howdy, admin</text>
  <circle cx="640" cy="16" r="10" fill="#555d66"/>

  <!-- Content area -->
  <rect x="160" y="32" width="560" height="368" fill="#f0f0f1"/>

  <!-- Page header -->
  <text x="180" y="66" font-size="20" font-weight="bold" fill="#1d2327">Plugins</text>
  <rect x="266" y="50" width="90" height="28" rx="3" fill="#2271b1"/>
  <text x="311" y="69" font-size="12" fill="white" text-anchor="middle">Thêm mới</text>

  <!-- Filter tabs -->
  <text x="180" y="90" font-size="12" fill="#2271b1">Tất cả (14)</text>
  <text x="248" y="90" font-size="12" fill="#646970"> | Đang dùng (9)</text>
  <text x="348" y="90" font-size="12" fill="#646970"> | Tắt (5)</text>
  <text x="396" y="90" font-size="12" fill="#646970"> | Cần cập nhật (2)</text>

  <!-- ===== PLUGIN 1: Yoast SEO — Active ===== -->
  <rect x="168" y="100" width="540" height="52" rx="2" fill="#fff" stroke="#c3c4c7" stroke-width="1"/>
  <rect x="168" y="100" width="4" height="52" fill="#00a32a"/>
  <rect x="180" y="110" width="32" height="32" rx="4" fill="#a4286a"/>
  <text x="196" y="131" font-size="14" fill="white" text-anchor="middle" font-weight="bold">Y</text>
  <text x="222" y="120" font-size="12" font-weight="bold" fill="#1d2327">Yoast SEO</text>
  <text x="222" y="133" font-size="10" fill="#646970">Công cụ tối ưu SEO hàng đầu — kiểm tra nội dung, sitemap, meta tags tự động</text>
  <text x="222" y="146" font-size="10" fill="#2271b1">Cài đặt</text>
  <text x="256" y="146" font-size="10" fill="#646970"> | </text>
  <text x="266" y="146" font-size="10" fill="#2271b1">Tắt plugin</text>
  <rect x="570" y="112" width="48" height="18" rx="9" fill="#d7f0dd"/>
  <text x="594" y="124" font-size="10" fill="#00a32a" text-anchor="middle" font-weight="bold">Đang dùng</text>
  <text x="630" y="122" font-size="11" fill="#dba617">★★★★★</text>
  <text x="636" y="134" font-size="9" fill="#646970">5.0</text>

  <!-- ===== PLUGIN 2: Jetpack — Active ===== -->
  <rect x="168" y="152" width="540" height="52" rx="2" fill="#f6f7f7" stroke="#c3c4c7" stroke-width="1"/>
  <rect x="168" y="152" width="4" height="52" fill="#00a32a"/>
  <rect x="180" y="162" width="32" height="32" rx="4" fill="#069e08"/>
  <text x="196" y="183" font-size="14" fill="white" text-anchor="middle" font-weight="bold">J</text>
  <text x="222" y="172" font-size="12" font-weight="bold" fill="#1d2327">Jetpack</text>
  <text x="222" y="185" font-size="10" fill="#646970">Bảo mật, hiệu suất, thống kê — giải pháp toàn diện cho tòa soạn báo trực tuyến</text>
  <text x="222" y="198" font-size="10" fill="#2271b1">Cài đặt</text>
  <text x="256" y="198" font-size="10" fill="#646970"> | </text>
  <text x="266" y="198" font-size="10" fill="#2271b1">Tắt plugin</text>
  <rect x="570" y="164" width="48" height="18" rx="9" fill="#d7f0dd"/>
  <text x="594" y="176" font-size="10" fill="#00a32a" text-anchor="middle" font-weight="bold">Đang dùng</text>
  <text x="630" y="174" font-size="11" fill="#dba617">★★★★</text>
  <text x="672" y="174" font-size="11" fill="#ddd">★</text>
  <text x="636" y="186" font-size="9" fill="#646970">4.2</text>

  <!-- ===== PLUGIN 3: Wordfence Security — Active ===== -->
  <rect x="168" y="204" width="540" height="52" rx="2" fill="#fff" stroke="#c3c4c7" stroke-width="1"/>
  <rect x="168" y="204" width="4" height="52" fill="#00a32a"/>
  <rect x="180" y="214" width="32" height="32" rx="4" fill="#104d8c"/>
  <text x="196" y="235" font-size="14" fill="white" text-anchor="middle" font-weight="bold">W</text>
  <text x="222" y="224" font-size="12" font-weight="bold" fill="#1d2327">Wordfence Security</text>
  <text x="222" y="237" font-size="10" fill="#646970">Tường lửa web, quét malware, bảo vệ đăng nhập chống hack cho website báo chí</text>
  <text x="222" y="250" font-size="10" fill="#2271b1">Cài đặt</text>
  <text x="256" y="250" font-size="10" fill="#646970"> | </text>
  <text x="266" y="250" font-size="10" fill="#2271b1">Tắt plugin</text>
  <rect x="570" y="216" width="48" height="18" rx="9" fill="#d7f0dd"/>
  <text x="594" y="228" font-size="10" fill="#00a32a" text-anchor="middle" font-weight="bold">Đang dùng</text>
  <text x="630" y="226" font-size="11" fill="#dba617">★★★★★</text>
  <text x="636" y="238" font-size="9" fill="#646970">4.8</text>

  <!-- ===== PLUGIN 4: UpdraftPlus — Inactive ===== -->
  <rect x="168" y="256" width="540" height="52" rx="2" fill="#f6f7f7" stroke="#c3c4c7" stroke-width="1"/>
  <rect x="168" y="256" width="4" height="52" fill="#c3c4c7"/>
  <rect x="180" y="266" width="32" height="32" rx="4" fill="#3c7eb5"/>
  <text x="196" y="287" font-size="14" fill="white" text-anchor="middle" font-weight="bold">U</text>
  <text x="222" y="276" font-size="12" font-weight="bold" fill="#1d2327">UpdraftPlus Backup</text>
  <text x="222" y="289" font-size="10" fill="#646970">Sao lưu và phục hồi dữ liệu tự động lên Google Drive, Dropbox, S3</text>
  <text x="222" y="302" font-size="10" fill="#2271b1">Kích hoạt</text>
  <text x="264" y="302" font-size="10" fill="#646970"> | </text>
  <text x="274" y="302" font-size="10" fill="#2271b1">Xóa</text>
  <rect x="562" y="268" width="56" height="18" rx="9" fill="#f0f0f0" stroke="#c3c4c7" stroke-width="1"/>
  <text x="590" y="280" font-size="10" fill="#646970" text-anchor="middle">Đã tắt</text>
  <text x="630" y="278" font-size="11" fill="#dba617">★★★★★</text>
  <text x="636" y="290" font-size="9" fill="#646970">4.9</text>

  <!-- ===== PLUGIN 5: Contact Form 7 — Active ===== -->
  <rect x="168" y="308" width="540" height="52" rx="2" fill="#fff" stroke="#c3c4c7" stroke-width="1"/>
  <rect x="168" y="308" width="4" height="52" fill="#00a32a"/>
  <rect x="180" y="318" width="32" height="32" rx="4" fill="#e35b00"/>
  <text x="196" y="339" font-size="13" fill="white" text-anchor="middle" font-weight="bold">CF7</text>
  <text x="222" y="328" font-size="12" font-weight="bold" fill="#1d2327">Contact Form 7</text>
  <text x="222" y="341" font-size="10" fill="#646970">Tạo form liên hệ, form gửi tin tức, form đặt lịch phỏng vấn linh hoạt cho báo điện tử</text>
  <text x="222" y="354" font-size="10" fill="#2271b1">Cài đặt</text>
  <text x="256" y="354" font-size="10" fill="#646970"> | </text>
  <text x="266" y="354" font-size="10" fill="#2271b1">Tắt plugin</text>
  <rect x="570" y="320" width="48" height="18" rx="9" fill="#d7f0dd"/>
  <text x="594" y="332" font-size="10" fill="#00a32a" text-anchor="middle" font-weight="bold">Đang dùng</text>
  <text x="630" y="330" font-size="11" fill="#dba617">★★★★</text>
  <text x="672" y="330" font-size="11" fill="#ddd">★</text>
  <text x="636" y="342" font-size="9" fill="#646970">4.5</text>

  <!-- Legend box -->
  <rect x="168" y="366" width="540" height="28" rx="4" fill="#fff" stroke="#c3c4c7" stroke-width="1"/>
  <rect x="182" y="376" width="52" height="14" rx="7" fill="#d7f0dd"/>
  <text x="208" y="387" font-size="9" fill="#00a32a" text-anchor="middle" font-weight="bold">Đang dùng</text>
  <text x="244" y="387" font-size="10" fill="#646970">= Plugin đang hoạt động</text>
  <rect x="400" y="376" width="40" height="14" rx="7" fill="#f0f0f0" stroke="#c3c4c7" stroke-width="1"/>
  <text x="420" y="387" font-size="9" fill="#646970" text-anchor="middle">Đã tắt</text>
  <text x="450" y="387" font-size="10" fill="#646970">= Plugin chưa kích hoạt</text>
  <text x="608" y="387" font-size="10" fill="#dba617">★★★★★</text>
  <text x="656" y="387" font-size="10" fill="#646970">= Đánh giá</text>
</svg>
